<svg height="511pt" viewBox="0 -2 511.99995 511" width="511pt" xmlns="http://www.w3.org/2000/svg"><path fill="white" d="m6.71875 412.871094-3.023438 1.792968c-3.582031 2.125-4.761718 6.75-2.640624 10.332032 1.410156 2.375 3.917968 3.695312 6.492187 3.695312 1.308594 0 2.632813-.339844 3.835937-1.054687l3.027344-1.796875c3.582032-2.121094 4.761719-6.746094 2.640625-10.328125-2.125-3.582031-6.75-4.761719-10.332031-2.640625zm0 0"/><path fill="white" d="m134.910156 336.84375-5.609375 3.328125c-3.578125 2.125-4.761719 6.746094-2.636719 10.328125 1.410157 2.375 3.917969 3.695312 6.492188 3.695312 1.304688 0 2.632812-.339843 3.835938-1.058593l5.609374-3.324219c3.582032-2.125 4.761719-6.75 2.636719-10.328125-2.121093-3.582031-6.75-4.761719-10.328125-2.640625zm0 0"/><path fill="white" d="m83.632812 367.257812-5.605468 3.324219c-3.582032 2.125-4.761719 6.746094-2.636719 10.328125 1.40625 2.375 3.914063 3.695313 6.488281 3.695313 1.308594 0 2.632813-.339844 3.839844-1.054688l5.605469-3.328125c3.582031-2.125 4.765625-6.746094 2.640625-10.328125s-6.75-4.761719-10.332032-2.636719zm0 0"/><path fill="white" d="m109.273438 352.050781-5.609376 3.324219c-3.582031 2.125-4.761718 6.75-2.636718 10.328125 1.410156 2.375 3.917968 3.695313 6.492187 3.695313 1.304688 0 2.628907-.339844 3.835938-1.054688l5.609375-3.328125c3.578125-2.121094 4.761718-6.746094 2.636718-10.328125-2.121093-3.578125-6.746093-4.761719-10.328124-2.636719zm0 0"/><path fill="white" d="m32.359375 397.667969-5.609375 3.324219c-3.582031 2.125-4.761719 6.75-2.636719 10.328124 1.410157 2.375 3.917969 3.695313 6.492188 3.695313 1.304687 0 2.632812-.339844 3.835937-1.054687l5.609375-3.328126c3.578125-2.121093 4.761719-6.746093 2.636719-10.328124-2.121094-3.582032-6.75-4.765626-10.328125-2.636719zm0 0"/><path fill="white" d="m508.328125 416.683594-3.015625-1.808594c-3.574219-2.132812-8.203125-.972656-10.339844 2.601562-2.136718 3.574219-.976562 8.203126 2.597656 10.339844l3.019532 1.804688c1.210937.726562 2.546875 1.070312 3.863281 1.070312 2.5625 0 5.0625-1.308594 6.476563-3.671875 2.136718-3.570312.972656-8.199219-2.601563-10.335937zm0 0"/><path fill="white" d="m485.007812 402.730469-5.683593-3.402344c-3.570313-2.136719-8.203125-.972656-10.339844 2.597656-2.136719 3.574219-.972656 8.203125 2.597656 10.339844l5.6875 3.402344c1.210938.726562 2.542969 1.070312 3.863281 1.070312 2.5625 0 5.0625-1.308593 6.472657-3.667969 2.140625-3.574218.976562-8.203124-2.597657-10.339843zm0 0"/><path fill="white" d="m459.023438 387.183594-.492188-.296875v-224.125c0-2.921875-1.773438-5.667969-4.414062-6.898438l-190.828126-110.175781v-5.484375c0-4.164063-3.375-7.539063-7.539062-7.539063s-7.539062 3.375-7.539062 7.539063v5.421875l-191.625 110.535156c-2.292969 1.332032-3.773438 3.871094-3.773438 6.527344v222.847656l-.425781.253906c-3.578125 2.121094-4.761719 6.746094-2.636719 10.328126 1.410156 2.375 3.917969 3.695312 6.492188 3.695312 1.304687 0 2.628906-.339844 3.835937-1.058594l1.773437-1.050781 189.539063 109.429687c2.363281 1.613282 5.570313 1.726563 8.050781.296876l188.902344-109.066407 2.9375 1.757813c1.210938.726562 2.546875 1.070312 3.863281 1.070312 2.566407 0 5.066407-1.308594 6.476563-3.667968 2.136718-3.574219.972656-8.203126-2.597656-10.339844zm-391.132813-3.402344v-208.042969l64.765625 37.394531c1.183594.683594 2.480469 1.011719 3.761719 1.011719 2.605469 0 5.136719-1.355469 6.535156-3.773437 2.082031-3.605469.84375-8.214844-2.761719-10.296875l-64.75-37.386719 180.253906-103.972656 180.128907 103.996094-93.953125 54.242187-78.582032-45.371094v-2.722656c0-4.160156-3.375-7.539063-7.539062-7.539063s-7.539062 3.375-7.539062 7.539063v2.644531l-82.890626 47.8125c-2.332031 1.34375-3.769531 3.835938-3.769531 6.53125v96.273438c-1.226562.039062-2.457031.382812-3.585937 1.050781l-3.027344 1.792969c-3.578125 2.125-4.761719 6.75-2.636719 10.332031 1.410157 2.375 3.917969 3.691406 6.492188 3.691406 1.304687 0 2.632812-.339843 3.835937-1.054687l3.027344-1.792969c.988281-.585937 1.785156-1.367187 2.386719-2.257813l80.046875 46.214844v107.722656zm187.78125-16.714844-71.785156-41.445312 71.777343-41.441406 47.984376 27.703124c3.605468 2.082032 8.214843.847657 10.296874-2.757812 2.082032-3.605469.84375-8.214844-2.757812-10.296875l-51.753906-29.882813c-2.335938-1.34375-5.207032-1.34375-7.539063 0l-75.265625 43.457032v-82.203125l71.460938-41.21875v49.046875c0 4.164062 3.375 7.539062 7.539062 7.539062 4.164063 0 7.539063-3.375 7.539063-7.539062v-49.101563l71.546875 41.304688v91.199219zm7.496094 13.082032 79.191406-45.722657c.535156.65625 1.1875 1.238281 1.957031 1.699219l3.015625 1.804688c1.214844.726562 2.546875 1.074218 3.867188 1.074218 2.5625 0 5.0625-1.308594 6.472656-3.671875 2.140625-3.570312.976563-8.199219-2.59375-10.339843l-3.019531-1.804688c-.722656-.433594-1.488282-.722656-2.265625-.890625v-92.507813l93.660156-54.074218v208.066406l-180.285156 104.085938zm0 0"/><path fill="white" d="m433.035156 371.636719-5.683594-3.402344c-3.570312-2.136719-8.203124-.972656-10.339843 2.597656-2.136719 3.574219-.976563 8.203125 2.597656 10.339844l5.683594 3.402344c1.214843.722656 2.546875 1.070312 3.867187 1.070312 2.5625 0 5.0625-1.3125 6.472656-3.671875 2.140626-3.570312.976563-8.199218-2.597656-10.335937zm0 0"/><path fill="white" d="m407.046875 356.085938-5.683594-3.398438c-3.570312-2.136719-8.199219-.976562-10.335937 2.597656-2.140625 3.570313-.976563 8.199219 2.597656 10.339844l5.683594 3.398438c1.210937.726562 2.546875 1.070312 3.863281 1.070312 2.5625 0 5.0625-1.308594 6.476563-3.667969 2.136718-3.570312.972656-8.199219-2.601563-10.339843zm0 0"/><path fill="white" d="m381.0625 340.539062-5.683594-3.398437c-3.570312-2.136719-8.203125-.976563-10.339844 2.597656-2.136718 3.570313-.972656 8.199219 2.597657 10.339844l5.683593 3.398437c1.214844.726563 2.546876 1.070313 3.863282 1.070313 2.566406 0 5.066406-1.308594 6.476562-3.667969 2.136719-3.570312.972656-8.199218-2.597656-10.339844zm0 0"/><path fill="white" d="m255.75 151.273438c4.164062 0 7.539062-3.375 7.539062-7.539063v-7.039063c0-4.160156-3.375-7.539062-7.539062-7.539062s-7.539062 3.375-7.539062 7.539062v7.039063c0 4.160156 3.375 7.539063 7.539062 7.539063zm0 0"/><path fill="white" d="m255.75 22.613281c4.164062 0 7.539062-3.375 7.539062-7.539062v-7.035157c0-4.164062-3.375-7.539062-7.539062-7.539062s-7.539062 3.375-7.539062 7.539062v7.035157c0 4.164062 3.375 7.539062 7.539062 7.539062zm0 0"/><path fill="white" d="m255.75 119.105469c4.164062 0 7.539062-3.375 7.539062-7.539063v-7.035156c0-4.164062-3.375-7.539062-7.539062-7.539062s-7.539062 3.375-7.539062 7.539062v7.035156c0 4.164063 3.375 7.539063 7.539062 7.539063zm0 0"/><path fill="white" d="m255.75 86.941406c4.164062 0 7.539062-3.375 7.539062-7.539062v-7.035156c0-4.164063-3.375-7.539063-7.539062-7.539063s-7.539062 3.375-7.539062 7.539063v7.035156c0 4.164062 3.375 7.539062 7.539062 7.539062zm0 0"/></svg>