<?xml version="1.0" encoding="iso-8859-1"?>
<!-- Generator: Adobe Illustrator 19.0.0, SVG Export Plug-In . SVG Version: 6.00 Build 0)  -->
<svg version="1.1" id="Capa_1" xmlns="http://www.w3.org/2000/svg" xmlns:xlink="http://www.w3.org/1999/xlink" x="0px" y="0px"
	 viewBox="0 0 512 512" style="enable-background:new 0 0 512 512;" xml:space="preserve">
		<path fill="white" d="M131,112v85c0,19.299,15.701,35,35,35h180c19.299,0,35-15.701,35-35v-85H131z M306,172c-8.284,0-15-6.716-15-15
			s6.716-15,15-15s15,6.716,15,15S314.284,172,306,172z"/>
		<path fill="white" d="M391,0v52h-30V0h-30v52h-30V0h-30v52h-30V0h-30v52h-30V0h-30v52h-30V0H55v145c0,19.299,15.701,35,35,35h11V82h310v98h11
			c19.299,0,35-15.701,35-35V0H391z"/>
		<path fill="white" d="M30,472c0-5.514,4.486-10,10-10h432c22.056,0,40-17.944,40-40c0-22.056-17.944-40-40-40H242.266
			c4.452,17.233,20.13,30,38.734,30h191c5.514,0,10,4.486,10,10c0,5.514-4.486,10-10,10H40c-22.056,0-40,17.944-40,40
			c0,22.056,17.944,40,40,40h472v-30H40C34.486,482,30,477.514,30,472z"/>
		<path fill="white" d="M281,322h-50c-6.889,0-13.582-0.845-20-2.399V352h90v-32.399C294.582,321.155,287.889,322,281,322z"/>
		<path fill="white" d="M182.035,262c9.12,17.79,27.637,30,48.965,30h50c21.327,0,39.845-12.21,48.965-30H182.035z"/>
</svg>
